<mxfile host="app.diagrams.net" modified="2020-08-03T03:13:34.391Z" agent="5.0 (Windows NT 10.0; Win64; x64) AppleWebKit/537.36 (KHTML, like Gecko) Chrome/84.0.4147.105 Safari/537.36" etag="TkQgXXzkQZN1uKkDFlye" version="13.5.8" type="github">
  <diagram id="4gmifbBsw1wVdD3g1SvQ" name="Landing-Page">
    <mxGraphModel dx="1122" dy="763" grid="1" gridSize="10" guides="1" tooltips="1" connect="1" arrows="1" fold="1" page="1" pageScale="1" pageWidth="850" pageHeight="1100" math="0" shadow="1">
      <root>
        <mxCell id="0" />
        <mxCell id="1" parent="0" />
        <mxCell id="kOIh05Z3Fd0eMTUpWkOt-1" value="" style="strokeWidth=1;shadow=0;dashed=0;align=center;html=1;shape=mxgraph.mockup.containers.browserWindow;rSize=0;strokeColor=#666666;strokeColor2=#008cff;strokeColor3=#c4c4c4;mainText=,;recursiveResize=0;" vertex="1" parent="1">
          <mxGeometry x="70" y="80" width="740" height="500" as="geometry" />
        </mxCell>
        <mxCell id="kOIh05Z3Fd0eMTUpWkOt-2" value="Page 1" style="strokeWidth=1;shadow=0;dashed=0;align=center;html=1;shape=mxgraph.mockup.containers.anchor;fontSize=17;fontColor=#666666;align=left;" vertex="1" parent="kOIh05Z3Fd0eMTUpWkOt-1">
          <mxGeometry x="60" y="12" width="110" height="26" as="geometry" />
        </mxCell>
        <mxCell id="kOIh05Z3Fd0eMTUpWkOt-3" value="https://www.draw.io" style="strokeWidth=1;shadow=0;dashed=0;align=center;html=1;shape=mxgraph.mockup.containers.anchor;rSize=0;fontSize=17;fontColor=#666666;align=left;" vertex="1" parent="kOIh05Z3Fd0eMTUpWkOt-1">
          <mxGeometry x="130" y="60" width="250" height="26" as="geometry" />
        </mxCell>
        <mxCell id="kOIh05Z3Fd0eMTUpWkOt-4" value="" style="rounded=0;whiteSpace=wrap;html=1;" vertex="1" parent="kOIh05Z3Fd0eMTUpWkOt-1">
          <mxGeometry y="110" width="740" height="30" as="geometry" />
        </mxCell>
        <mxCell id="kOIh05Z3Fd0eMTUpWkOt-5" value="SkyWatch" style="text;html=1;strokeColor=none;fillColor=none;align=center;verticalAlign=middle;whiteSpace=wrap;rounded=0;" vertex="1" parent="kOIh05Z3Fd0eMTUpWkOt-1">
          <mxGeometry x="10" y="115" width="60" height="20" as="geometry" />
        </mxCell>
        <mxCell id="kOIh05Z3Fd0eMTUpWkOt-6" value="Home" style="text;html=1;strokeColor=none;fillColor=none;align=center;verticalAlign=middle;whiteSpace=wrap;rounded=0;" vertex="1" parent="kOIh05Z3Fd0eMTUpWkOt-1">
          <mxGeometry x="580" y="115" width="40" height="20" as="geometry" />
        </mxCell>
        <mxCell id="kOIh05Z3Fd0eMTUpWkOt-7" value="How To Use" style="text;html=1;strokeColor=none;fillColor=none;align=center;verticalAlign=middle;whiteSpace=wrap;rounded=0;" vertex="1" parent="kOIh05Z3Fd0eMTUpWkOt-1">
          <mxGeometry x="630" y="115" width="90" height="20" as="geometry" />
        </mxCell>
        <mxCell id="kOIh05Z3Fd0eMTUpWkOt-9" value="" style="rounded=0;whiteSpace=wrap;html=1;strokeColor=#9673a6;fillColor=none;strokeWidth=3;" vertex="1" parent="kOIh05Z3Fd0eMTUpWkOt-1">
          <mxGeometry y="140" width="740" height="180" as="geometry" />
        </mxCell>
        <mxCell id="kOIh05Z3Fd0eMTUpWkOt-10" value="Enter a city here" style="rounded=1;whiteSpace=wrap;html=1;strokeWidth=1;fillColor=none;" vertex="1" parent="kOIh05Z3Fd0eMTUpWkOt-1">
          <mxGeometry x="140" y="210" width="370" height="30" as="geometry" />
        </mxCell>
        <mxCell id="kOIh05Z3Fd0eMTUpWkOt-11" value="" style="rounded=0;whiteSpace=wrap;html=1;strokeWidth=1;fillColor=none;" vertex="1" parent="kOIh05Z3Fd0eMTUpWkOt-1">
          <mxGeometry x="520" y="210" width="50" height="30" as="geometry" />
        </mxCell>
        <mxCell id="kOIh05Z3Fd0eMTUpWkOt-13" value="Temperature" style="rounded=1;whiteSpace=wrap;html=1;strokeWidth=1;fillColor=none;" vertex="1" parent="kOIh05Z3Fd0eMTUpWkOt-1">
          <mxGeometry x="305" y="330" width="130" height="160" as="geometry" />
        </mxCell>
        <mxCell id="kOIh05Z3Fd0eMTUpWkOt-14" value="Weather Icon" style="rounded=0;whiteSpace=wrap;html=1;strokeWidth=1;fillColor=none;" vertex="1" parent="kOIh05Z3Fd0eMTUpWkOt-1">
          <mxGeometry x="325" y="340" width="90" height="60" as="geometry" />
        </mxCell>
      </root>
    </mxGraphModel>
  </diagram>
</mxfile>
